<?xml version="1.0" standalone="no"?><!DOCTYPE svg PUBLIC "-//W3C//DTD SVG 1.1//EN" "http://www.w3.org/Graphics/SVG/1.1/DTD/svg11.dtd"><svg t="1723498253036" class="icon" viewBox="0 0 1024 1024" version="1.1" xmlns="http://www.w3.org/2000/svg" p-id="13959" data-darkreader-inline-fill="" data-spm-anchor-id="a313x.search_index.0.i6.62833a810iCo1W" xmlns:xlink="http://www.w3.org/1999/xlink" width="200" height="200"><path d="M512.28 968.01c-61.57 0-121.29-12.06-177.53-35.84-54.31-22.97-103.08-55.85-144.96-97.74s-74.77-90.66-97.74-144.96C68.27 633.23 56.21 573.5 56.21 511.94c0-61.57 12.06-121.29 35.84-177.53 22.97-54.31 55.85-103.08 97.74-144.97s90.66-74.77 144.96-97.74c56.23-23.78 115.96-35.84 177.53-35.84S633.57 67.92 689.81 91.7c54.31 22.97 103.08 55.85 144.96 97.74s74.77 90.66 97.74 144.97c23.78 56.23 35.84 115.96 35.84 177.53 0 61.57-12.06 121.29-35.84 177.53-22.97 54.31-55.85 103.08-97.74 144.96-41.88 41.88-90.66 74.77-144.96 97.74-56.23 23.78-115.96 35.84-177.53 35.84z m0-896.14c-59.41 0-117.04 11.63-171.29 34.58-52.4 22.16-99.47 53.9-139.88 94.31-40.42 40.42-72.15 87.48-94.31 139.88-22.95 54.26-34.59 111.89-34.59 171.3 0 59.41 11.63 117.04 34.58 171.29 22.16 52.4 53.9 99.47 94.31 139.88 40.42 40.42 87.48 72.15 139.88 94.31C395.23 940.37 452.86 952 512.27 952s117.04-11.63 171.29-34.58c52.4-22.16 99.47-53.9 139.88-94.31s72.15-87.48 94.31-139.88c22.95-54.25 34.58-111.88 34.58-171.29S940.7 394.9 917.75 340.65c-22.16-52.4-53.9-99.47-94.31-139.88s-87.48-72.15-139.88-94.31C629.33 83.5 571.7 71.87 512.28 71.87z" fill="#ffffff" p-id="13960" data-darkreader-inline-fill="" style="--darkreader-inline-fill: #62816c;" data-spm-anchor-id="a313x.search_index.0.i7.62833a810iCo1W" class="selected"></path></svg>