<?xml version="1.0" standalone="no"?><!DOCTYPE svg PUBLIC "-//W3C//DTD SVG 1.1//EN" "http://www.w3.org/Graphics/SVG/1.1/DTD/svg11.dtd"><svg t="1722591026000" class="icon" viewBox="0 0 1024 1024" version="1.1" xmlns="http://www.w3.org/2000/svg" p-id="6912" xmlns:xlink="http://www.w3.org/1999/xlink" width="200" height="200"><path d="M228.32 532.76h-6.92c-11.47 0-20.76-9.3-20.76-20.76s9.29-20.76 20.76-20.76h6.92c11.47 0 20.76 9.3 20.76 20.76s-9.29 20.76-20.76 20.76zM712.65 532.76h-13.84c-11.47 0-20.76-9.3-20.76-20.76s9.29-20.76 20.76-20.76h13.84c11.47 0 20.76 9.3 20.76 20.76s-9.3 20.76-20.76 20.76z m-96.87 0h-13.84c-11.47 0-20.76-9.3-20.76-20.76s9.29-20.76 20.76-20.76h13.84c11.47 0 20.76 9.3 20.76 20.76s-9.29 20.76-20.76 20.76z m-96.86 0h-13.84c-11.47 0-20.76-9.3-20.76-20.76s9.29-20.76 20.76-20.76h13.84c11.47 0 20.76 9.3 20.76 20.76s-9.3 20.76-20.76 20.76z m-96.87 0h-13.84c-11.47 0-20.76-9.3-20.76-20.76s9.29-20.76 20.76-20.76h13.84c11.47 0 20.76 9.3 20.76 20.76s-9.29 20.76-20.76 20.76z m-96.86 0h-13.84c-11.47 0-20.76-9.3-20.76-20.76s9.29-20.76 20.76-20.76h13.84c11.47 0 20.76 9.3 20.76 20.76s-9.3 20.76-20.76 20.76zM802.59 532.76h-6.92c-11.47 0-20.76-9.3-20.76-20.76s9.29-20.76 20.76-20.76h6.92c11.47 0 20.76 9.3 20.76 20.76s-9.29 20.76-20.76 20.76z" fill="#ffffff" p-id="6913"></path></svg>